<mxfile host="app.diagrams.net" modified="2023-08-16T14:54:06.733Z" agent="Mozilla/5.0 (Windows NT 10.0; Win64; x64) AppleWebKit/537.36 (KHTML, like Gecko) Chrome/115.0.0.0 Safari/537.36" version="21.6.8" etag="b0k0CdRnEHNKJ460qNo6" type="github">
  <diagram name="Страница — 1" id="IoYtKdN_nb6VUbl5kBTe">
    <mxGraphModel>
      <root>
        <mxCell id="0" />
        <mxCell id="1" parent="0" />
      </root>
    </mxGraphModel>
  </diagram>
</mxfile>
